<svg width="145" height="86" viewBox="0 0 145 86" fill="none" xmlns="http://www.w3.org/2000/svg">
<rect width="145" height="86" rx="3" fill="#4F0106"/>
<path d="M35.976 42.388C35.688 42.388 35.436 42.34 35.22 42.244C34.572 42.052 33.912 41.644 33.24 41.02C32.568 40.372 31.98 39.604 31.476 38.716C30.996 37.804 30.708 36.904 30.612 36.016C30.588 35.92 30.576 35.8 30.576 35.656C30.576 35.512 30.576 35.344 30.576 35.152C30.576 32.056 32.52 30.508 36.408 30.508C38.328 30.508 40.44 30.808 42.744 31.408C45.048 32.008 47.724 32.812 50.772 33.82C51.54 34.084 52.188 34.3 52.716 34.468C53.244 34.636 53.628 34.756 53.868 34.828C54.684 35.068 55.44 35.188 56.136 35.188C56.904 35.188 57.468 35.044 57.828 34.756C58.188 34.444 58.356 34.108 58.332 33.748V33.604C58.332 33.316 58.416 33.172 58.584 33.172C58.776 33.172 58.98 33.316 59.196 33.604C59.292 33.724 59.34 33.892 59.34 34.108C59.34 34.612 59.064 35.08 58.512 35.512C57.96 35.944 57.12 36.16 55.992 36.16C54.96 36.16 53.82 35.992 52.572 35.656C51.324 35.32 49.704 34.828 47.712 34.18C45.48 33.46 43.644 32.92 42.204 32.56C40.764 32.176 39.42 31.984 38.172 31.984C35.244 31.984 33.384 33.268 32.592 35.836C32.52 36.076 32.484 36.352 32.484 36.664C32.484 37.264 32.64 37.948 32.952 38.716C33.288 39.46 33.696 40.132 34.176 40.732C34.656 41.308 35.124 41.644 35.58 41.74H35.832C36.408 41.74 36.696 41.848 36.696 42.064C36.696 42.136 36.636 42.208 36.516 42.28C36.372 42.352 36.192 42.388 35.976 42.388ZM38.28 55.348C37.152 55.108 36.588 54.496 36.588 53.512C36.588 53.032 36.708 52.396 36.948 51.604C37.188 50.908 37.404 50.296 37.596 49.768C37.812 49.216 38.016 48.748 38.208 48.364C38.4 47.98 38.628 47.548 38.892 47.068C39.18 46.588 39.516 46.048 39.9 45.448L38.1 46.492C37.788 46.66 37.512 46.804 37.272 46.924C37.032 47.044 36.816 47.128 36.624 47.176C36.6 47.176 36.576 47.188 36.552 47.212C36.552 47.212 36.54 47.212 36.516 47.212C36.396 47.212 36.336 47.116 36.336 46.924C36.336 46.66 36.42 46.336 36.588 45.952C36.78 45.568 36.96 45.316 37.128 45.196C37.44 45.028 37.728 44.884 37.992 44.764C38.256 44.644 38.484 44.56 38.676 44.512C38.748 44.488 38.832 44.464 38.928 44.44C39.024 44.392 39.132 44.356 39.252 44.332C39.468 44.26 39.756 44.152 40.116 44.008C40.476 43.84 40.764 43.744 40.98 43.72C40.98 43.72 41.064 43.6 41.232 43.36C41.4 43.096 41.652 42.712 41.988 42.208C42.996 40.648 43.62 39.652 43.86 39.22C44.436 38.188 44.952 37.384 45.408 36.808C45.672 36.448 46.044 36.268 46.524 36.268C46.86 36.268 47.172 36.352 47.46 36.52C47.748 36.688 47.892 36.868 47.892 37.06C47.892 37.18 47.844 37.276 47.748 37.348C47.076 37.924 46.272 38.74 45.336 39.796C44.424 40.828 43.524 41.932 42.636 43.108C44.556 42.604 46.356 42.352 48.036 42.352C48.42 42.352 48.696 42.388 48.864 42.46C49.056 42.58 49.152 42.688 49.152 42.784C49.152 42.856 49.08 42.952 48.936 43.072C48.864 43.12 48.768 43.156 48.648 43.18C48.552 43.204 48.444 43.228 48.324 43.252C47.412 43.3 46.608 43.384 45.912 43.504C45.216 43.624 44.532 43.792 43.86 44.008C43.212 44.2 42.48 44.464 41.664 44.8C41.16 45.52 40.74 46.132 40.404 46.636C40.068 47.116 39.792 47.572 39.576 48.004C39.36 48.412 39.156 48.868 38.964 49.372C38.772 49.852 38.568 50.452 38.352 51.172C38.112 51.892 37.992 52.468 37.992 52.9C37.992 53.572 38.292 53.98 38.892 54.124C39.108 54.148 39.216 54.268 39.216 54.484C39.216 54.7 39.108 54.904 38.892 55.096C38.7 55.312 38.496 55.396 38.28 55.348ZM52.9534 53.044C52.3294 53.044 52.0174 52.588 52.0174 51.676C52.0174 50.74 52.3414 49.36 52.9894 47.536C52.2214 48.52 51.4534 49.396 50.6854 50.164C49.9414 50.908 49.1974 51.52 48.4534 52C47.9254 52.384 47.4454 52.576 47.0134 52.576C46.4374 52.576 46.1494 52.18 46.1494 51.388C46.1494 50.956 46.2214 50.56 46.3654 50.2C46.5574 49.672 46.8334 49.06 47.1934 48.364C47.5774 47.668 48.0214 46.972 48.5254 46.276C49.0294 45.58 49.5454 44.992 50.0734 44.512C50.2654 44.392 50.3854 44.332 50.4334 44.332C50.6014 44.332 50.6854 44.428 50.6854 44.62C50.6854 44.692 50.6494 44.788 50.5774 44.908C50.3614 45.148 50.1094 45.496 49.8214 45.952C49.5334 46.408 49.2574 46.9 48.9934 47.428C48.7294 47.956 48.5014 48.448 48.3094 48.904C48.1414 49.336 48.0574 49.66 48.0574 49.876C48.0574 50.308 48.2494 50.524 48.6334 50.524C48.8014 50.524 48.9814 50.464 49.1734 50.344C50.0614 49.792 50.8774 49.132 51.6214 48.364C52.3654 47.572 53.0614 46.504 53.7094 45.16C53.9254 45.016 54.1654 44.944 54.4294 44.944C54.6934 44.944 54.9094 45.028 55.0774 45.196C55.2694 45.364 55.3654 45.592 55.3654 45.88C55.3654 46.096 55.3054 46.348 55.1854 46.636C55.1614 46.732 55.1134 46.828 55.0414 46.924C54.9934 47.02 54.9334 47.128 54.8614 47.248C54.7894 47.368 54.7294 47.488 54.6814 47.608C54.6334 47.704 54.5854 47.788 54.5374 47.86C54.0814 48.676 53.7214 49.36 53.4574 49.912C53.2174 50.464 53.0974 50.944 53.0974 51.352C53.0974 51.832 53.3134 52.072 53.7454 52.072C54.1294 52.072 54.5134 51.928 54.8974 51.64C55.1374 51.472 55.3414 51.388 55.5094 51.388C55.7734 51.388 55.7134 51.556 55.3294 51.892C54.9694 52.204 54.5254 52.492 53.9974 52.756C53.4934 52.948 53.1454 53.044 52.9534 53.044ZM56.4904 54.376C56.2264 54.376 55.9984 54.292 55.8064 54.124C55.6384 53.956 55.5664 53.752 55.5904 53.512C55.6384 52.528 55.8184 51.58 56.1304 50.668C56.4664 49.756 56.9464 48.664 57.5704 47.392C57.6424 47.224 57.7024 47.08 57.7504 46.96C57.8224 46.816 57.8824 46.696 57.9304 46.6C58.4584 45.472 58.9984 44.392 59.5504 43.36C60.1024 42.328 60.6544 41.32 61.2064 40.336L61.7104 39.436C62.2864 38.404 62.7904 37.576 63.2224 36.952C63.6544 36.304 64.0864 35.836 64.5184 35.548C65.0704 35.212 65.4064 35.044 65.5264 35.044C65.7184 35.044 65.9104 35.212 66.1024 35.548C66.2224 35.788 65.9824 36.376 65.3824 37.312C65.0704 37.792 64.6744 38.392 64.1944 39.112C63.7384 39.832 63.1864 40.648 62.5384 41.56C62.4184 41.728 62.2144 42.028 61.9264 42.46C61.6624 42.868 61.3024 43.408 60.8464 44.08C60.3904 44.752 59.9944 45.364 59.6584 45.916C59.3224 46.444 59.0464 46.912 58.8304 47.32C58.3984 48.112 57.9904 48.964 57.6064 49.876C57.2224 50.764 57.0304 51.46 57.0304 51.964C57.0304 52.42 57.2104 52.648 57.5704 52.648C58.1464 52.648 59.0704 52.156 60.3424 51.172C60.4864 51.196 60.5584 51.268 60.5584 51.388C60.5584 51.484 60.4384 51.652 60.1984 51.892C59.9824 52.108 59.7064 52.336 59.3704 52.576C59.0584 52.84 58.6864 53.14 58.2544 53.476L57.6784 53.908C57.2944 54.22 56.8984 54.376 56.4904 54.376ZM62.0451 54.376C61.7811 54.376 61.5531 54.292 61.3611 54.124C61.1931 53.956 61.1211 53.752 61.1451 53.512C61.1931 52.528 61.3731 51.58 61.6851 50.668C62.0211 49.756 62.5011 48.664 63.1251 47.392C63.1971 47.224 63.2571 47.08 63.3051 46.96C63.3771 46.816 63.4371 46.696 63.4851 46.6C64.0131 45.472 64.5531 44.392 65.1051 43.36C65.6571 42.328 66.2091 41.32 66.7611 40.336L67.2651 39.436C67.8411 38.404 68.3451 37.576 68.7771 36.952C69.2091 36.304 69.6411 35.836 70.0731 35.548C70.6251 35.212 70.9611 35.044 71.0811 35.044C71.2731 35.044 71.4651 35.212 71.6571 35.548C71.7771 35.788 71.5371 36.376 70.9371 37.312C70.6251 37.792 70.2291 38.392 69.7491 39.112C69.2931 39.832 68.7411 40.648 68.0931 41.56C67.9731 41.728 67.7691 42.028 67.4811 42.46C67.2171 42.868 66.8571 43.408 66.4011 44.08C65.9451 44.752 65.5491 45.364 65.2131 45.916C64.8771 46.444 64.6011 46.912 64.3851 47.32C63.9531 48.112 63.5451 48.964 63.1611 49.876C62.7771 50.764 62.5851 51.46 62.5851 51.964C62.5851 52.42 62.7651 52.648 63.1251 52.648C63.7011 52.648 64.6251 52.156 65.8971 51.172C66.0411 51.196 66.1131 51.268 66.1131 51.388C66.1131 51.484 65.9931 51.652 65.7531 51.892C65.5371 52.108 65.2611 52.336 64.9251 52.576C64.6131 52.84 64.2411 53.14 63.8091 53.476L63.2331 53.908C62.8491 54.22 62.4531 54.376 62.0451 54.376ZM70.6598 60.424C70.1558 60.424 69.9038 60.136 69.9038 59.56C69.9038 59.08 70.0478 58.516 70.3358 57.868C70.5758 57.34 70.8398 56.812 71.1278 56.284C71.4158 55.78 71.7398 55.276 72.0998 54.772C73.2998 53.14 74.4758 51.664 75.6278 50.344C76.7798 49.024 78.0038 47.776 79.2998 46.6C80.5958 45.4 82.0358 44.224 83.6198 43.072C83.9558 42.304 84.2438 41.596 84.4838 40.948C84.7478 40.3 84.9398 39.7 85.0598 39.148C84.9638 39.244 84.6518 39.556 84.1238 40.084C83.5958 40.588 82.8518 41.296 81.8918 42.208L79.6598 44.296C78.6518 45.256 77.7998 46.048 77.1038 46.672C76.4078 47.272 75.6878 47.848 74.9438 48.4C73.2398 49.672 71.8478 50.308 70.7678 50.308C70.5038 50.308 70.3358 50.296 70.2638 50.272C69.4238 50.08 69.0038 49.468 69.0038 48.436C69.0038 47.644 69.2438 46.66 69.7238 45.484C70.2038 44.308 70.8518 43.072 71.6678 41.776C72.5078 40.456 73.3718 39.256 74.2598 38.176C75.1718 37.072 76.1318 36.016 77.1398 35.008C78.1718 34 79.2038 33.1 80.2358 32.308C81.2678 31.492 82.2158 30.88 83.0798 30.472C83.9438 30.064 84.8678 29.86 85.8517 29.86C86.0438 29.86 86.2478 29.872 86.4638 29.896C86.6798 29.92 86.9078 29.956 87.1478 30.004C87.6758 30.124 88.1198 30.4 88.4798 30.832C88.8398 31.24 89.0198 31.744 89.0198 32.344C89.0198 32.944 88.8158 33.58 88.4078 34.252C88.2158 34.54 87.9638 34.804 87.6518 35.044C87.3398 35.26 87.0638 35.392 86.8238 35.44H86.7158C86.4998 35.44 86.3918 35.356 86.3918 35.188V35.116C86.3918 34.852 86.5238 34.528 86.7878 34.144C87.3158 33.328 87.5798 32.584 87.5798 31.912C87.5798 31.24 87.2558 30.904 86.6078 30.904C86.0078 30.904 85.0958 31.252 83.8718 31.948C83.0078 32.428 82.0838 33.04 81.0998 33.784C80.1398 34.504 79.1798 35.284 78.2198 36.124C77.2838 36.964 76.4198 37.816 75.6278 38.68C74.8358 39.544 74.0678 40.516 73.3238 41.596C72.6038 42.676 72.0158 43.72 71.5598 44.728C71.0558 45.832 70.8038 46.72 70.8038 47.392C70.8038 48.04 71.0318 48.412 71.4878 48.508C71.6078 48.532 71.7158 48.556 71.8118 48.58C71.9078 48.58 71.9798 48.58 72.0278 48.58C72.8198 48.58 73.6478 48.292 74.5118 47.716C75.3758 47.14 76.2998 46.42 77.2838 45.556C78.3398 44.572 79.3358 43.612 80.2718 42.676C81.2318 41.716 82.1078 40.768 82.8998 39.832L84.4838 37.96L85.1318 37.204C85.2758 37.036 85.4918 36.952 85.7798 36.952C86.0678 36.952 86.3198 37.036 86.5358 37.204C86.7758 37.348 86.8838 37.528 86.8598 37.744C86.7638 38.224 86.6078 38.812 86.3918 39.508C86.1998 40.18 85.9358 40.948 85.5998 41.812C86.0798 41.548 86.4998 41.32 86.8598 41.128C87.2438 40.912 87.5678 40.744 87.8318 40.624C88.0238 40.552 88.1558 40.528 88.2278 40.552C88.2998 40.552 88.3358 40.588 88.3358 40.66C88.3358 40.732 88.2758 40.84 88.1558 40.984C88.0358 41.104 87.8678 41.212 87.6518 41.308C87.3878 41.452 87.0398 41.668 86.6078 41.956C86.1998 42.244 85.6958 42.592 85.0958 43C84.3758 44.656 83.4878 46.384 82.4318 48.184C81.3998 49.96 80.2478 51.676 78.9758 53.332C77.7278 55.012 76.4078 56.524 75.0158 57.868C74.6078 58.252 74.1278 58.636 73.5758 59.02C73.0478 59.428 72.5198 59.764 71.9918 60.028C71.4878 60.292 71.0438 60.424 70.6598 60.424ZM72.6398 58.228C73.0478 58.228 73.4078 58.096 73.7198 57.832C74.0558 57.568 74.3078 57.352 74.4758 57.184C75.8678 55.84 77.2958 54.052 78.7598 51.82C80.2238 49.588 81.5918 47.2 82.8638 44.656C81.7118 45.592 80.7038 46.444 79.8398 47.212C78.9758 47.98 78.1838 48.748 77.4638 49.516C76.7678 50.26 76.0718 51.064 75.3758 51.928C74.7038 52.792 73.9718 53.776 73.1798 54.88C72.6758 55.552 72.3158 56.272 72.0998 57.04C72.0758 57.112 72.0518 57.196 72.0278 57.292C72.0278 57.388 72.0278 57.496 72.0278 57.616C72.0278 58.024 72.2318 58.228 72.6398 58.228ZM85.0724 54.376C84.8084 54.376 84.5804 54.292 84.3884 54.124C84.2204 53.956 84.1484 53.752 84.1724 53.512C84.2204 52.528 84.4004 51.58 84.7124 50.668C85.0484 49.756 85.5284 48.664 86.1524 47.392C86.2244 47.224 86.2844 47.08 86.3324 46.96C86.4044 46.816 86.4644 46.696 86.5124 46.6C87.0404 45.472 87.5804 44.392 88.1324 43.36C88.6844 42.328 89.2364 41.32 89.7884 40.336L90.2924 39.436C90.8684 38.404 91.3724 37.576 91.8044 36.952C92.2364 36.304 92.6684 35.836 93.1004 35.548C93.6524 35.212 93.9884 35.044 94.1084 35.044C94.3004 35.044 94.4924 35.212 94.6844 35.548C94.8044 35.788 94.5644 36.376 93.9644 37.312C93.6524 37.792 93.2564 38.392 92.7764 39.112C92.3204 39.832 91.7684 40.648 91.1204 41.56C91.0004 41.728 90.7964 42.028 90.5084 42.46C90.2444 42.868 89.8844 43.408 89.4284 44.08C88.9724 44.752 88.5764 45.364 88.2404 45.916C87.9044 46.444 87.6284 46.912 87.4124 47.32C86.9804 48.112 86.5724 48.964 86.1884 49.876C85.8044 50.764 85.6124 51.46 85.6124 51.964C85.6124 52.42 85.7924 52.648 86.1524 52.648C86.7284 52.648 87.6524 52.156 88.9244 51.172C89.0684 51.196 89.1404 51.268 89.1404 51.388C89.1404 51.484 89.0204 51.652 88.7804 51.892C88.5644 52.108 88.2884 52.336 87.9524 52.576C87.6404 52.84 87.2684 53.14 86.8364 53.476L86.2604 53.908C85.8764 54.22 85.4804 54.376 85.0724 54.376ZM96.2071 52.972C96.1591 52.972 96.1111 52.96 96.0631 52.936C96.0151 52.936 95.9671 52.924 95.9191 52.9C95.5831 52.732 95.3671 52.492 95.2711 52.18C95.1751 51.868 95.1511 51.472 95.1991 50.992C95.2471 50.8 95.2951 50.464 95.3431 49.984C95.4151 49.504 95.4991 49.12 95.5951 48.832L93.7591 50.596L92.7511 51.568C92.0551 52.264 91.4791 52.612 91.0231 52.612C90.8311 52.612 90.6751 52.54 90.5551 52.396C90.3391 52.132 90.2311 51.808 90.2311 51.424C90.2311 50.92 90.3631 50.38 90.6271 49.804C90.8911 49.228 91.2031 48.676 91.5631 48.148C91.9231 47.596 92.2471 47.14 92.5351 46.78C93.2551 45.892 93.9511 45.196 94.6231 44.692C95.3191 44.188 96.0391 43.936 96.7831 43.936C97.1911 43.936 97.5871 44.008 97.9711 44.152C98.3791 44.296 98.7511 44.536 99.0871 44.872L99.1231 44.908C99.1231 44.98 99.0631 45.052 98.9431 45.124C98.8951 45.172 98.8471 45.208 98.7991 45.232C98.7751 45.256 98.7511 45.28 98.7271 45.304C98.4391 45.592 98.1151 46.072 97.7551 46.744C97.3951 47.416 97.0831 48.124 96.8191 48.868C96.5551 49.588 96.4231 50.212 96.4231 50.74C96.4231 51.22 96.5431 51.544 96.7831 51.712C96.9031 51.784 97.0351 51.82 97.1791 51.82C97.4911 51.82 97.9231 51.628 98.4751 51.244C98.4991 51.22 98.5471 51.184 98.6191 51.136C98.7151 51.064 98.8471 50.968 99.0151 50.848C99.2071 50.704 99.3631 50.632 99.4831 50.632C99.6031 50.632 99.6631 50.68 99.6631 50.776C99.6631 50.92 99.5671 51.088 99.3751 51.28C99.2311 51.4 99.0631 51.532 98.8711 51.676C98.7031 51.82 98.4991 51.964 98.2591 52.108C97.8991 52.372 97.5271 52.576 97.1431 52.72C96.7591 52.888 96.4471 52.972 96.2071 52.972ZM92.1391 50.668C92.6431 50.668 93.5791 49.924 94.9471 48.436C95.3071 48.028 95.6311 47.644 95.9191 47.284C96.2071 46.9 96.4711 46.528 96.7111 46.168C97.1431 45.472 97.2871 44.992 97.1431 44.728C97.0711 44.584 96.9271 44.512 96.7111 44.512C96.4471 44.512 96.0871 44.656 95.6311 44.944C95.1751 45.208 94.7071 45.556 94.2271 45.988C93.7711 46.42 93.3511 46.852 92.9671 47.284C92.7031 47.62 92.4391 48.088 92.1751 48.688C91.9111 49.288 91.7791 49.78 91.7791 50.164C91.7791 50.5 91.8991 50.668 92.1391 50.668ZM100.095 53.512C99.7108 53.512 99.3748 53.476 99.0868 53.404C98.8228 53.332 98.6908 53.236 98.6908 53.116C98.6908 52.924 98.8828 52.816 99.2668 52.792C99.6268 52.768 99.8668 52.732 99.9868 52.684C100.203 52.636 100.455 52.6 100.743 52.576C101.007 52.528 101.223 52.492 101.391 52.468C102.543 52.132 103.119 51.616 103.119 50.92C103.119 50.44 102.867 49.828 102.363 49.084C102.051 48.628 101.895 48.124 101.895 47.572C101.895 46.9 102.099 46.24 102.507 45.592C102.939 44.944 103.467 44.38 104.091 43.9C104.739 43.396 105.387 43.06 106.035 42.892C106.323 42.82 106.623 42.784 106.935 42.784C107.439 42.784 107.799 42.904 108.015 43.144C108.159 43.288 108.231 43.6 108.231 44.08C108.231 44.44 108.171 44.812 108.051 45.196C107.931 45.556 107.763 45.856 107.547 46.096C107.427 46.216 107.331 46.276 107.259 46.276C107.139 46.276 107.079 46.108 107.079 45.772L107.115 45.052C107.139 44.86 107.151 44.692 107.151 44.548C107.175 44.404 107.187 44.284 107.187 44.188C107.187 43.78 107.103 43.54 106.935 43.468C106.743 43.42 106.611 43.396 106.539 43.396C106.035 43.396 105.495 43.624 104.919 44.08C104.343 44.536 103.875 45.064 103.515 45.664C103.371 45.88 103.299 46.144 103.299 46.456C103.299 46.84 103.395 47.296 103.587 47.824C103.803 48.328 103.959 48.7 104.055 48.94C104.295 49.468 104.475 49.924 104.595 50.308C104.739 50.692 104.811 51.028 104.811 51.316C104.811 51.46 104.799 51.568 104.775 51.64C104.895 51.592 105.183 51.52 105.639 51.424C106.047 51.328 106.395 51.28 106.683 51.28C106.851 51.28 106.935 51.316 106.935 51.388C106.935 51.412 106.863 51.496 106.719 51.64C106.647 51.712 106.419 51.832 106.035 52C105.675 52.144 105.243 52.3 104.739 52.468C104.259 52.636 103.779 52.792 103.299 52.936C102.819 53.08 102.411 53.188 102.075 53.26C101.499 53.428 100.839 53.512 100.095 53.512ZM107.021 53.512C106.637 53.512 106.301 53.476 106.013 53.404C105.749 53.332 105.617 53.236 105.617 53.116C105.617 52.924 105.809 52.816 106.193 52.792C106.553 52.768 106.793 52.732 106.913 52.684C107.129 52.636 107.381 52.6 107.669 52.576C107.933 52.528 108.149 52.492 108.317 52.468C109.469 52.132 110.045 51.616 110.045 50.92C110.045 50.44 109.793 49.828 109.289 49.084C108.977 48.628 108.821 48.124 108.821 47.572C108.821 46.9 109.025 46.24 109.433 45.592C109.865 44.944 110.393 44.38 111.017 43.9C111.665 43.396 112.313 43.06 112.961 42.892C113.249 42.82 113.549 42.784 113.861 42.784C114.365 42.784 114.725 42.904 114.941 43.144C115.085 43.288 115.157 43.6 115.157 44.08C115.157 44.44 115.097 44.812 114.977 45.196C114.857 45.556 114.689 45.856 114.473 46.096C114.353 46.216 114.257 46.276 114.185 46.276C114.065 46.276 114.005 46.108 114.005 45.772L114.041 45.052C114.065 44.86 114.077 44.692 114.077 44.548C114.101 44.404 114.113 44.284 114.113 44.188C114.113 43.78 114.029 43.54 113.861 43.468C113.669 43.42 113.537 43.396 113.465 43.396C112.961 43.396 112.421 43.624 111.845 44.08C111.269 44.536 110.801 45.064 110.441 45.664C110.297 45.88 110.225 46.144 110.225 46.456C110.225 46.84 110.321 47.296 110.513 47.824C110.729 48.328 110.885 48.7 110.981 48.94C111.221 49.468 111.401 49.924 111.521 50.308C111.665 50.692 111.737 51.028 111.737 51.316C111.737 51.46 111.725 51.568 111.701 51.64C111.821 51.592 112.109 51.52 112.565 51.424C112.973 51.328 113.321 51.28 113.609 51.28C113.777 51.28 113.861 51.316 113.861 51.388C113.861 51.412 113.789 51.496 113.645 51.64C113.573 51.712 113.345 51.832 112.961 52C112.601 52.144 112.169 52.3 111.665 52.468C111.185 52.636 110.705 52.792 110.225 52.936C109.745 53.08 109.337 53.188 109.001 53.26C108.425 53.428 107.765 53.512 107.021 53.512Z" fill="#FFB5AC"/>
</svg>
